<svg xmlns="http://www.w3.org/2000/svg" viewBox="0 0 100 100" width="48" height="48" fill="none"
                            fill-rule="evenodd">
                            <path
                                d="M16.024 0h67.95c5.572 0 7.593.58 9.63 1.67s3.636 2.688 4.725 4.725 1.67 4.058 1.67 9.63v67.95c0 5.572-.58 7.593-1.67 9.63s-2.688 3.636-4.725 4.725-4.058 1.67-9.63 1.67h-67.95c-5.572 0-7.593-.58-9.63-1.67S2.76 95.642 1.67 93.605 0 89.548 0 83.976v-67.95c0-5.572.58-7.593 1.67-9.63S4.358 2.76 6.395 1.67 10.452 0 16.024 0z"
                                fill="#ab6993"></path>
                            <path
                                d="M57.98 39.967l5.413 4.398a.51.51 0 0 1-.092.847l-6.234 3.142a1.44 1.44 0 0 1-.388.124l-.136.016a1.44 1.44 0 0 1-1.031-.31c-.407-.326-.588-.842-.48-1.336l.037-.134 2.108-6.5a.51.51 0 0 1 .803-.238zm15.55-20.523a4.33 4.33 0 0 1 5.728-.648l.182.136 1.06.88a4.14 4.14 0 0 1 1.486 2.821 4.12 4.12 0 0 1-.82 2.849l-.148.184-14.9 17.566c-.36.425-.995.48-1.423.125l-5.915-4.9c-.432-.358-.5-.998-.133-1.43L73.53 19.444z"
                                fill="#fff"></path>
                            <g stroke="#eadae4" stroke-linecap="round" stroke-linejoin="round" stroke-width="3.046">
                                <path d="M48.012 62.483h-7.356m7.356-24.49h-7.356"></path>
                                <path d="M44.232 39.695l.004 21.566"></path>
                            </g>
                            <path
                                d="M24 22.985c-.523 0-.954.396-1.01.905l-.006.11v52c0 .523.396.954.905 1.01l.11.006h52c.523 0 .954-.396 1.01-.905l.006-.11V42.302c0-.56-.455-1.015-1.015-1.015-.523 0-.954.396-1.01.905l-.006.11v32.682h-49.97v-49.97h34.7c.523 0 .954-.396 1.01-.905l.006-.11c0-.523-.396-.954-.905-1.01l-.11-.006H24z"
                                fill="#fff" fill-rule="nonzero"></path>
                            <g fill="#eadae4">
                                <rect x="18" y="18" width="12" height="12" rx="6"></rect>
                                <rect x="18" y="70" width="12" height="12" rx="6"></rect>
                                <rect x="70" y="70" width="12" height="12" rx="6"></rect>
                            </g>
                        </svg>