<svg xmlns="http://www.w3.org/2000/svg" width="48" height="48" viewBox="0 0 100 100" fill-rule="evenodd"><path d="M35.354 68.687h19.1c4.953 0 6.75-.516 8.56-1.484s3.232-2.39 4.2-4.2 1.484-3.607 1.484-8.56v-19.1H89.64c3.602 0 4.908.375 6.225 1.08a7.34 7.34 0 0 1 3.055 3.055c.704 1.317 1.08 2.623 1.08 6.225V89.64c0 3.602-.375 4.908-1.08 6.225a7.34 7.34 0 0 1-3.055 3.055c-1.317.704-2.623 1.08-6.225 1.08H45.713c-3.602 0-4.908-.375-6.225-1.08a7.34 7.34 0 0 1-3.055-3.055c-.704-1.317-1.08-2.623-1.08-6.225V68.687z" fill="#fbefa8"></path><path d="M87.88 74.277c0-.957-.79-1.733-1.766-1.733s-1.766.776-1.766 1.733v7.686L74.06 71.864a1.79 1.79 0 0 0-2.496 0 1.71 1.71 0 0 0 0 2.45L81.85 84.413h-7.828c-.976 0-1.766.776-1.766 1.733s.79 1.733 1.766 1.733h12.1a1.81 1.81 0 0 0 .674-.133c.43-.175.776-.513.954-.937.1-.21.136-.436.136-.66l.002-11.87z" fill="#b7a001" fill-rule="nonzero"></path><path d="M10.36 0h43.928c3.602 0 4.908.375 6.225 1.08a7.34 7.34 0 0 1 3.055 3.055c.704 1.317 1.08 2.623 1.08 6.225v43.928c0 3.602-.375 4.908-1.08 6.225a7.34 7.34 0 0 1-3.055 3.055c-1.317.704-2.623 1.08-6.225 1.08H10.36c-3.602 0-4.908-.375-6.225-1.08a7.34 7.34 0 0 1-3.055-3.055C.375 59.196 0 57.89 0 54.287V10.36C0 6.757.375 5.45 1.08 4.134a7.34 7.34 0 0 1 3.055-3.055C5.45.375 6.757 0 10.36 0z" fill="#d6bf2d"></path><path d="M6.444 37.69V26.63c0-.93.608-1.558 1.558-1.558S9.56 25.7 9.56 26.63v3.876h5.662V26.63c0-.93.608-1.558 1.558-1.558s1.558.627 1.558 1.558V37.69c0 .93-.608 1.558-1.558 1.558s-1.558-.627-1.558-1.558v-4.56H9.56v4.56c0 .93-.608 1.558-1.558 1.558s-1.558-.627-1.558-1.558zm18.126 0v-9.747h-2.945c-.893 0-1.615-.456-1.615-1.31s.722-1.31 1.615-1.31h9.006c.893 0 1.615.456 1.615 1.31s-.722 1.31-1.615 1.31h-2.945v9.747c0 .93-.608 1.558-1.558 1.558s-1.558-.627-1.558-1.558zm9.29.038V26.612c0-1.254.855-1.54 1.69-1.54h.912c.97 0 1.425.38 1.748 1.425l2.717 8.778h.038l2.68-8.778c.323-1.045.78-1.425 1.748-1.425h.874c.836 0 1.69.285 1.69 1.54v11.115c0 .78-.38 1.52-1.387 1.52s-1.387-.74-1.387-1.52v-8.474h-.038l-2.907 9.082c-.21.646-.684.912-1.33.912s-1.12-.266-1.33-.912l-2.907-9.082h-.038v8.474c0 .78-.38 1.52-1.387 1.52s-1.387-.74-1.387-1.52zm16.93-.55V26.63c0-.93.608-1.558 1.558-1.558s1.558.627 1.558 1.558v9.747h5.206c.893 0 1.615.456 1.615 1.31S60.005 39 59.112 39h-6.498c-1.102 0-1.824-.437-1.824-1.824z" fill="#fff" fill-rule="nonzero"></path></svg>