<svg width="50" height="50" viewBox="0 0 50 50" fill="none" xmlns="http://www.w3.org/2000/svg">
                            <path
                                d="M7.692 0h32.616c2.675 0 3.645.278 4.623.801a5.452 5.452 0 0 1 2.268 2.268c.523.978.801 1.948.801 4.623v32.616c0 2.675-.279 3.645-.801 4.623a5.452 5.452 0 0 1-2.268 2.268c-.978.523-1.948.801-4.623.801H7.692c-2.675 0-3.645-.279-4.623-.801A5.452 5.452 0 0 1 .801 44.93C.278 43.953 0 42.983 0 40.308V7.692c0-2.675.278-3.645.801-4.623A5.452 5.452 0 0 1 3.07.801C4.047.278 5.017 0 7.692 0Z"
                                fill="#8FBC5D"></path>
                            <path
                                d="M34.985 23.5c-.56 0-1.014-.454-1.014-1.015v-5.327a2.19 2.19 0 0 0-.595-1.509l-6.031-5.39a1.98 1.98 0 0 0-1.435-.626h-8.851c-1.121 0-2.03.956-2.03 2.134v2.185a1.015 1.015 0 1 1-2.03 0v-2.185C13.001 9.41 14.818 7.5 17.06 7.5h8.85c1.077 0 2.11.45 2.87 1.25l6.032 5.391A4.38 4.38 0 0 1 36 17.158v5.327c0 .56-.454 1.015-1.015 1.015Z"
                                fill="#E5F5D2"></path>
                            <path
                                d="M10 27a1.5 1.5 0 0 1 1.5-1.5H37a1.5 1.5 0 0 1 1.5 1.5v9a1.5 1.5 0 0 1-1.5 1.5H11.5A1.5 1.5 0 0 1 10 36v-9Z"
                                fill="#fff"></path>
                            <path fill-rule="evenodd" clip-rule="evenodd"
                                d="M19.429 26.5c1.015 0 1.772.285 2.247.866.37.455.588 1.06.658 1.818l.019.291.005.263v3.47l-.006.287c-.04.885-.263 1.59-.676 2.11-.476.6-1.234.895-2.247.895-.514 0-.962-.075-1.342-.229a2.172 2.172 0 0 1-.948-.712c-.225-.3-.389-.65-.491-1.044-.06-.23-.101-.48-.125-.753l-.017-.281-.006-.285v-3.465l.005-.26c.036-.897.258-1.602.675-2.11.473-.578 1.23-.861 2.249-.861Zm7.076 0c.949 0 1.655.26 2.096.79.341.41.542.96.608 1.649l.02.265.005.264v.109c0 .53-.434.96-.968.96a.967.967 0 0 1-.934-.716l-.027-.13-.007-.113-.001-.287-.013-.346-.013-.16-.009-.05-.057-.221-.026-.073a.101.101 0 0 0-.01-.018 1.31 1.31 0 0 0-.113-.126.21.21 0 0 0-.074-.049 1.167 1.167 0 0 0-.197-.052 1.49 1.49 0 0 0-.269-.022c-.152 0-.281.016-.386.045a.457.457 0 0 0-.195.101.788.788 0 0 0-.15.19.887.887 0 0 0-.084.275l-.031.212-.02.2-.012.367v3.764c0 .62.077 1.043.21 1.242.108.163.32.25.668.25.144 0 .264-.014.359-.041a.355.355 0 0 0 .162-.091.862.862 0 0 0 .142-.189.836.836 0 0 0 .071-.26l.032-.266.011-.23.005-.458c0-.53.434-.96.968-.96.44 0 .819.295.934.716l.027.13.007.115v.059c0 .366-.024.697-.073.991a3.38 3.38 0 0 1-.26.86c-.13.284-.304.521-.52.712-.215.19-.484.336-.806.44-.313.102-.67.152-1.07.152-.43 0-.811-.057-1.146-.173a2.35 2.35 0 0 1-.85-.492 2.4 2.4 0 0 1-.54-.766 3.515 3.515 0 0 1-.275-.917 5.723 5.723 0 0 1-.055-.49l-.013-.267-.005-.27v-3.227c0-.403.025-.764.076-1.083.052-.331.144-.641.274-.93.138-.303.32-.557.547-.759.228-.202.512-.357.85-.466a3.69 3.69 0 0 1 1.137-.16Zm8.704.736c-.517-.437-1.295-.648-2.33-.648h-1.332l-.117.008-.122.026a.906.906 0 0 0-.674.872v7.913l.008.119.024.123a1 1 0 0 0 .97.752l.12-.008.142-.027.128-.045.119-.06a.988.988 0 0 0 .493-.854v-3.29h.422l.996 3.43.048.132.074.141c.217.36.602.58 1.024.58a.819.819 0 0 0 .822-.815l-.007-.099-.01-.066-1.105-3.745.165-.095c.626-.408.934-1.167.934-2.233 0-.95-.26-1.661-.792-2.11Zm-15.78.938c-.215 0-.385.029-.508.08a.436.436 0 0 0-.221.193 1.23 1.23 0 0 0-.14.398c-.015.08-.026.173-.033.276l-.008.163-.003.19v3.992l.003.195c.005.178.019.33.04.455.026.152.074.289.142.412.052.094.125.161.224.207.123.055.292.085.504.085.212 0 .379-.03.5-.085a.47.47 0 0 0 .228-.207c.068-.123.116-.26.142-.412.014-.084.025-.18.032-.285l.008-.167.003-.193V29.48l-.003-.192a3.202 3.202 0 0 0-.04-.442 1.23 1.23 0 0 0-.14-.398.436.436 0 0 0-.222-.192 1.336 1.336 0 0 0-.508-.08Zm13.209.012.235-.002.18.005.16.012c.306.03.511.107.611.213.141.149.224.462.224.933 0 .48-.093.79-.254.932l-.072.054c-.186.12-.497.187-.93.187l-.154-.001v-2.333Z"
                                fill="#8FBC5D"></path>
                            <path fill-rule="evenodd" clip-rule="evenodd" d="M12.5 40.5v-18H14v18h-1.5Z" fill="#fff">
                            </path>
                            <path fill-rule="evenodd" clip-rule="evenodd" d="M12.5 37.5v-12H14v12h-1.5Z" fill="#8FBC5D">
                            </path>
                            <path fill-rule="evenodd" clip-rule="evenodd"
                                d="M10 40.75a.75.75 0 0 1 .75-.75h5a.75.75 0 0 1 0 1.5h-5a.75.75 0 0 1-.75-.75ZM10 22.25a.75.75 0 0 1 .75-.75h5a.75.75 0 0 1 0 1.5h-5a.75.75 0 0 1-.75-.75Z"
                                fill="#fff"></path>
                            <path d="m26 7.5 5 5 4 5h-6.5A2.5 2.5 0 0 1 26 15V7.5Z" fill="#E5F5D2"></path>
                        </svg>