<svg xmlns="http://www.w3.org/2000/svg" xmlns:xlink="http://www.w3.org/1999/xlink" width="48"
                            height="48" viewBox="0 0 100 100">
                            <defs>
                                <path
                                    d="M22 28.172l9.074 9.146c.67.675 1.755.675 2.424 0a1.74 1.74 0 0 0 0-2.444L23.212 24.506c-.67-.675-1.755-.675-2.424 0L10.502 34.874a1.74 1.74 0 0 0 0 2.444c.67.675 1.755.675 2.424 0L22 28.172z"
                                    id="A"></path>
                                <path
                                    d="M22 71.668l9.074-9.146c.67-.675 1.755-.675 2.424 0a1.74 1.74 0 0 1 0 2.444L23.212 75.334c-.67.675-1.755.675-2.424 0L10.502 64.966a1.74 1.74 0 0 1 0-2.444c.67-.675 1.755-.675 2.424 0L22 71.668z"
                                    id="B"></path>
                            </defs>
                            <path
                                d="M63.05 56h29.9c2.452 0 3.34.255 4.237.735s1.6 1.183 2.08 2.08S100 60.6 100 63.05v29.9c0 2.452-.255 3.34-.735 4.237s-1.183 1.6-2.08 2.08S95.4 100 92.95 100h-29.9c-2.452 0-3.34-.255-4.237-.735s-1.6-1.183-2.08-2.08S56 95.4 56 92.95v-29.9c0-2.452.255-3.34.735-4.237s1.183-1.6 2.08-2.08S60.6 56 63.05 56z"
                                fill="#f5c5b3"></path>
                            <path
                                d="M7.05 0h29.9c2.452 0 3.34.255 4.237.735s1.6 1.183 2.08 2.08S44 4.6 44 7.05v85.9c0 2.452-.255 3.34-.735 4.237s-1.183 1.6-2.08 2.08S39.4 100 36.95 100H7.05c-2.452 0-3.34-.255-4.237-.735s-1.6-1.183-2.08-2.08S0 95.4 0 92.95V7.05C0 4.6.255 3.7.735 2.814s1.183-1.6 2.08-2.08S4.6 0 7.05 0z"
                                fill="#ee6c4d"></path>
                            <path
                                d="M63.05 0h29.9c2.452 0 3.34.255 4.237.735s1.6 1.183 2.08 2.08S100 4.6 100 7.05v29.9c0 2.452-.255 3.34-.735 4.237s-1.183 1.6-2.08 2.08S95.4 44 92.95 44h-29.9c-2.452 0-3.34-.255-4.237-.735s-1.6-1.183-2.08-2.08S56 39.4 56 36.95V7.05c0-2.452.255-3.34.735-4.237s1.183-1.6 2.08-2.08S60.6 0 63.05 0z"
                                fill="#f5c5b3"></path>
                            <path
                                d="M70.394 27.743l5.227-13.536c.345-.893.986-1.206 1.972-1.206h.96c.912 0 1.726.217 2.17 1.448l4.88 13.295c.148.386.394 1.086.394 1.52 0 .965-.863 1.737-1.898 1.737-.888 0-1.53-.314-1.824-1.086L81.24 27.02h-6.508l-1.06 2.895c-.27.772-.838 1.086-1.8 1.086-1.1 0-1.874-.676-1.874-1.737 0-.434.247-1.134.394-1.52zm9.96-3.475l-2.293-6.973h-.05l-2.4 6.973h4.733zM71 83.733V71.267c0-1.724.884-2.267 2.233-2.267h5.07c2.8 0 6.116.638 6.116 4.392a3.62 3.62 0 0 1-2.349 3.447v.047c1.767.472 2.93 1.747 2.93 4.085 0 3.565-2.86 5.03-6.163 5.03h-5.605C71.884 86 71 85.457 71 83.733zm3.814-5.3v4.58h3.2c1.488 0 3.163-.307 3.163-2.267 0-2.054-1.767-2.314-3.628-2.314h-2.744zm0-6.6v4.156h3.14c1.8 0 2.65-.732 2.65-2.078 0-1.63-1.35-2.078-2.767-2.078h-3.023z"
                                fill="#b63c23"></path>
                            <g fill="#fff">
                                <mask>
                                    <use xlink:href="#A"></use>
                                </mask>
                                <use fill-rule="nonzero" xlink:href="#A"></use>
                                <mask>
                                    <use xlink:href="#B"></use>
                                </mask>
                                <use fill-rule="nonzero" xlink:href="#B"></use>
                                <ellipse cx="22" cy="49.92" rx="5.143" ry="5.184"></ellipse>
                            </g>
                        </svg>