<svg xmlns="http://www.w3.org/2000/svg" width="48" height="48" viewBox="0 0 50 50"
                            fill-rule="evenodd">
                            <path
                                d="M31.523 28h14.953c1.223 0 1.668.13 2.117.367.44.234.805.598 1.04 1.04.242.45.367.895.367 2.117v14.953c0 1.223-.13 1.668-.367 2.117-.234.44-.598.805-1.04 1.04-.45.242-.895.367-2.117.367H31.523c-1.223 0-1.668-.13-2.117-.367-.44-.234-.805-.598-1.04-1.04-.242-.45-.367-.895-.367-2.117V31.523c0-1.223.13-1.668.367-2.117.234-.44.598-.805 1.04-1.04.45-.242.895-.367 2.117-.367zm0-28h14.953c1.223 0 1.668.13 2.117.367.44.234.805.598 1.04 1.04.242.45.367.895.367 2.117v14.953c0 1.223-.13 1.668-.367 2.117-.234.44-.598.805-1.04 1.04-.45.242-.895.367-2.117.367H31.523c-1.223 0-1.668-.13-2.117-.367-.44-.234-.805-.598-1.04-1.04-.242-.45-.367-.895-.367-2.117V3.523c0-1.223.13-1.668.367-2.117.234-.44.598-.805 1.04-1.04C29.855.125 30.3 0 31.523 0zm-28 28h14.953c1.223 0 1.668.13 2.117.367.44.234.805.598 1.04 1.04.242.45.367.895.367 2.117v14.953c0 1.223-.13 1.668-.367 2.117-.234.44-.598.805-1.04 1.04-.45.242-.895.367-2.117.367H3.523c-1.223 0-1.668-.13-2.117-.367-.44-.234-.805-.598-1.04-1.04C.125 48.145 0 47.7 0 46.477V31.523c0-1.223.13-1.668.367-2.117.234-.44.598-.805 1.04-1.04.45-.242.895-.367 2.117-.367zm0-28h14.953c1.223 0 1.668.13 2.117.367.44.234.805.598 1.04 1.04.242.45.367.895.367 2.117v14.953c0 1.223-.13 1.668-.367 2.117-.234.44-.598.805-1.04 1.04-.45.242-.895.367-2.117.367H3.523c-1.223 0-1.668-.13-2.117-.367-.44-.234-.805-.598-1.04-1.04C.125 20.145 0 19.7 0 18.477V3.523C0 2.3.13 1.852.367 1.406A2.56 2.56 0 0 1 1.406.367C1.855.13 2.3 0 3.523 0zm0 0"
                                fill="rgb(67.058824%,41.176471%,57.647059%)"></path>
                            <path
                                d="M10.34 14.27v-4.94H8.664c-.43 0-.664-.156-.664-.687 0-.484.262-.613.938-.742l.48-.105C10.86 7.48 10.457 6 11.566 6c.418 0 .754.184.754.883v7.387c0 .676-.258 1.14-.988 1.14s-.988-.465-.988-1.14zm27.31-.668h3.902c.492 0 .855.234.855.816s-.363.82-.96.82H36.57c-.754 0-1.066-.508-1.066-.96 0-.926.82-1.953 2.445-2.977 1.81-1.145 2.43-1.38 2.43-2.434 0-.848-.648-1.313-1.363-1.313-.832 0-1.39.34-1.676 1.38-.133.48-.3.727-.82.727-.535 0-.95-.22-.95-.87 0-1.586 1.56-2.8 3.47-2.8 2.082 0 3.316 1.367 3.316 2.563 0 1.73-.793 2.398-2.172 3.184-1.47.832-2.363 1.367-2.535 1.86zM7.5 41.664a.88.88 0 0 1 .922-.91c1.156 0 .535 1.598 2.328 1.598.977 0 1.5-.598 1.5-1.402 0-.625-.273-1.082-1.172-1.172-.363-.04-1.078-.102-1.078-.703 0-.676.39-.816 1.133-.855.648-.04.988-.418.988-1.016 0-.777-.613-1.145-1.3-1.145-1.574 0-1.21 1.484-2.234 1.484-.445 0-.87-.2-.87-.78 0-1.586 1.883-2.262 3.145-2.262 2.25 0 3.082 1.262 3.082 2.523 0 .832-.38 1.43-1.102 1.82.977.27 1.39 1.05 1.39 2.027 0 2.055-1.586 3.04-3.508 3.04-2.445 0-3.21-1.52-3.21-2.246zm31.75-1.484v-3.367h-.023l-2.512 3.367zm0 2.824v-1.34h-3.262c-.676 0-.988-.48-.988-.898 0-.336.078-.547.246-.766l4.004-5.137c.2-.258.48-.363.852-.363.703 0 .973.38.973.938v4.75h.652c.44 0 .727.31.727.738s-.285.742-.727.742h-.652v1.34c0 .547-.23.9-.9.9s-.906-.363-.906-.9zm0 0"
                                fill="rgb(100%,100%,100%)"></path>
                        </svg>