<svg xmlns="http://www.w3.org/2000/svg" width="48" height="48" viewBox="0 0 100 100"
                            fill-rule="evenodd">
                            <path
                                d="M64.706 31.342H45.6c-4.957 0-6.755.516-8.567 1.485s-3.235 2.392-4.204 4.204-1.485 3.6-1.485 8.567v19.107H10.37c-3.605 0-4.913-.375-6.23-1.08a7.35 7.35 0 0 1-3.057-3.057C.375 59.25 0 57.943 0 54.337V10.37c0-3.605.375-4.913 1.08-6.23A7.35 7.35 0 0 1 4.138 1.08C5.456.375 6.763 0 10.37 0h43.97c3.605 0 4.913.375 6.23 1.08a7.35 7.35 0 0 1 3.057 3.057c.705 1.318 1.08 2.625 1.08 6.23v20.973z"
                                fill="#c0cfe1"></path>
                            <path
                                d="M27.94 14.624c0-.937-.758-1.697-1.697-1.697s-1.697.76-1.697 1.697v7.525l-9.887-9.887c-.663-.663-1.736-.663-2.4 0s-.663 1.736 0 2.4l9.887 9.887h-7.523c-.938 0-1.697.76-1.697 1.697s.758 1.697 1.697 1.697h11.62a1.71 1.71 0 0 0 .647-.131c.415-.17.746-.503.917-.917.086-.206.13-.427.13-.647V14.624z"
                                fill="#204160" fill-rule="nonzero"></path>
                            <path
                                d="M45.663 35.294h43.97c3.605 0 4.913.375 6.23 1.08a7.35 7.35 0 0 1 3.057 3.057c.705 1.318 1.08 2.625 1.08 6.23v43.97c0 3.605-.375 4.913-1.08 6.23a7.35 7.35 0 0 1-3.057 3.057c-1.318.705-2.625 1.08-6.23 1.08h-43.97c-3.605 0-4.913-.375-6.23-1.08a7.35 7.35 0 0 1-3.057-3.057c-.705-1.318-1.08-2.625-1.08-6.23v-43.97c0-3.605.375-4.913 1.08-6.23a7.35 7.35 0 0 1 3.057-3.057c1.318-.705 2.625-1.08 6.23-1.08z"
                                fill="#4A7AAB"></path>
                            <path
                                d="M49.288 78.12l8.604-22.644c.216-.576.576-1.476 1.98-1.476.828 0 1.872.684 1.872 1.836 0 .396-.144.792-.288 1.188l-8.604 22.644c-.216.576-.576 1.476-1.98 1.476-.828 0-1.872-.684-1.872-1.836 0-.396.144-.792.288-1.188zm14.415-1.98l7.632-20.196c.504-1.332 1.44-1.8 2.88-1.8h1.404c1.332 0 2.52.324 3.168 2.16l7.128 19.836c.216.576.576 1.62.576 2.268 0 1.44-1.26 2.592-2.772 2.592-1.296 0-2.232-.468-2.664-1.62l-1.512-4.32H70.04l-1.548 4.32c-.396 1.152-1.224 1.62-2.628 1.62-1.62 0-2.736-1.008-2.736-2.592 0-.648.36-1.692.576-2.268zm14.544-5.184L74.9 60.552h-.072l-3.492 10.404h6.912z"
                                fill="#fff"></path>
                        </svg>