<svg xmlns="http://www.w3.org/2000/svg" width="48" height="48" viewBox="0 0 50 50">
                            <path
                                d="M32.324 15.656h-9.547c-2.477 0-3.375.258-4.28.742a5.04 5.04 0 0 0-2.098 2.102c-.484.902-.742 1.8-.742 4.277v9.547H5.18c-1.8 0-2.45-.187-3.113-.54-.648-.348-1.184-.88-1.527-1.527-.352-.66-.54-1.31-.54-3.113V5.18c0-1.8.188-2.45.54-3.113S1.4.89 2.066.54 3.38 0 5.18 0h21.965c1.8 0 2.453.188 3.113.54.648.344 1.18.88 1.527 1.527.352.66.54 1.313.54 3.113zm0 0"
                                fill-rule="evenodd" fill="rgb(86.27451%,89.803922%,98.039216%)"></path>
                            <path
                                d="M14.477 7.52a.88.88 0 0 0-.883-.867c-.48 0-.883.39-.883.867v3.844L7.566 6.316a.89.89 0 0 0-1.246 0c-.168.16-.258.38-.258.61s.1.453.258.613l5.145 5.05H7.547c-.488 0-.883.387-.883.863s.398.867.883.867h6.055a.92.92 0 0 0 .336-.066c.215-.086.387-.254.477-.47.05-.102.066-.215.066-.328l.004-5.938zm0 0"
                                fill="rgb(16.078431%,34.117647%,58.431373%)"></path>
                            <path
                                d="M22.855 17.676H44.82c1.8 0 2.45.188 3.113.543a3.68 3.68 0 0 1 1.527 1.523c.352.66.54 1.313.54 3.113V44.82c0 1.8-.187 2.45-.54 3.113s-.867 1.176-1.527 1.527-1.312.54-3.113.54H22.855c-1.8 0-2.453-.187-3.113-.54-.648-.344-1.18-.88-1.527-1.527-.352-.66-.54-1.312-.54-3.113V22.855c0-1.8.188-2.453.54-3.113.348-.648.88-1.18 1.527-1.527.66-.352 1.313-.54 3.113-.54zm0 0"
                                fill-rule="evenodd" fill="rgb(37.254902%,51.372549%,77.647059%)"></path>
                            <path
                                d="M38.996 26.75h2.965l-2.94 14.64h-3.094l-1.777-9.035-1.824 9.035H29.12L26.2 26.75h3.164l1.508 9.363 1.938-9.363h3.004l1.727 9.297zm0 0"
                                fill="rgb(100%,100%,100%)"></path>
                        </svg>