<svg xmlns="http://www.w3.org/2000/svg" width="48" height="48" viewBox="0 0 50 50">
                            <path
                                d="M32.324 15.656h-9.55c-2.477 0-3.375.258-4.28.742a5.06 5.06 0 0 0-2.098 2.102c-.484.902-.742 1.8-.742 4.277v9.55H5.18c-1.8 0-2.453-.187-3.113-.54a3.69 3.69 0 0 1-1.527-1.527C.188 29.598 0 28.945 0 27.145V5.18c0-1.8.188-2.453.54-3.113A3.69 3.69 0 0 1 2.066.539C2.727.188 3.38 0 5.18 0h21.965c1.8 0 2.453.188 3.113.54a3.69 3.69 0 0 1 1.527 1.527c.352.66.54 1.313.54 3.113zm0 0"
                                fill-rule="evenodd" fill="rgb(76.078431%,89.803922%,76.470588%)"></path>
                            <path
                                d="M14.477 7.52c0-.477-.395-.863-.883-.863s-.883.387-.883.863v3.844L7.566 6.316a.89.89 0 0 0-1.246 0c-.168.16-.258.38-.258.61s.1.453.258.613l5.145 5.05H7.55c-.488 0-.883.387-.883.867s.395.863.883.863h6.047a.85.85 0 0 0 .34-.066c.215-.086.387-.254.477-.47.05-.102.066-.215.066-.328l.004-5.934zm0 0"
                                fill="rgb(18.039216%,44.705882%,21.568627%)"></path>
                            <g fill-rule="evenodd">
                                <path
                                    d="M22.855 17.676H44.82c1.8 0 2.453.188 3.113.543.648.344 1.184.875 1.527 1.527.352.656.54 1.31.54 3.11V44.82c0 1.8-.187 2.453-.54 3.113a3.69 3.69 0 0 1-1.527 1.527c-.66.352-1.312.54-3.113.54H22.855c-1.8 0-2.453-.187-3.113-.54-.648-.344-1.18-.88-1.527-1.527-.352-.66-.54-1.312-.54-3.113V22.855c0-1.8.188-2.453.54-3.113.348-.648.88-1.18 1.527-1.527.66-.352 1.313-.54 3.113-.54zm0 0"
                                    fill="rgb(36.862745%,63.137255%,38.431373%)"></path>
                                <path
                                    d="M36.61 41l-2.508-4.72c-.102-.176-.195-.5-.3-.973h-.04c-.047.223-.16.56-.336 1.012L30.9 41H27l4.64-7.25-4.246-7.25h3.992l2.082 4.348c.164.344.313.754.438 1.227h.04c.082-.285.234-.703.457-1.266l2.316-4.31h3.66l-4.37 7.19L40.5 41zm0 0"
                                    fill="rgb(100%,100%,100%)"></path>
                            </g>
                        </svg>