<svg xmlns="http://www.w3.org/2000/svg" width="48" height="48" viewBox="0 0 100 100">
                            <path
                                d="M16.024 0h67.95c5.572 0 7.593.58 9.63 1.67s3.636 2.688 4.725 4.725 1.67 4.058 1.67 9.63v67.95c0 5.572-.58 7.593-1.67 9.63s-2.688 3.636-4.725 4.725-4.058 1.67-9.63 1.67h-67.95c-5.572 0-7.593-.58-9.63-1.67S2.76 95.642 1.67 93.605 0 89.548 0 83.976v-67.95c0-5.572.58-7.593 1.67-9.63S4.358 2.76 6.395 1.67 10.452 0 16.024 0z"
                                fill="#4A7AAB"></path>
                            <g fill="#fff">
                                <path
                                    d="M49.485 21.715a2.5 2.5 0 0 1 2.031 0l21.5 9.556a2.5 2.5 0 0 1 1.485 2.285V47.89c0 14.445-10 27.82-23.407 31.095a2.5 2.5 0 0 1-1.186 0C36.5 75.708 26.5 62.334 26.5 47.89V33.556a2.5 2.5 0 0 1 1.485-2.285l21.5-9.556zM31.5 35.18v12.71c0 11.97 8.165 23.116 19 26.084 10.835-2.968 19-14.113 19-26.084V35.18l-19-8.444-19 8.444z"
                                    fill-rule="nonzero"></path>
                                <path
                                    d="M53.89 58.493h-7.713l1.178-9.56c-1.136-.798-1.874-2.088-1.874-3.546 0-2.422 2.038-4.386 4.553-4.386s4.553 1.964 4.553 4.386c0 1.457-.738 2.748-1.874 3.546l1.176 9.56z">
                                </path>
                            </g>
                        </svg>