<svg xmlns="http://www.w3.org/2000/svg" width="48" height="48" viewBox="0 0 50 50"
                            fill-rule="evenodd">
                            <path
                                d="M8.012 0h33.977c2.785 0 3.797.29 4.816.836 1.004.53 1.828 1.355 2.36 2.363.547 1.016.836 2.027.836 4.813v33.977c0 2.785-.29 3.797-.836 4.816-.53 1.004-1.355 1.828-2.36 2.36-1.02.547-2.03.836-4.816.836H8.012c-2.785 0-3.797-.29-4.816-.836-1.004-.53-1.828-1.355-2.36-2.36C.29 45.785 0 44.773 0 41.988V8.012c0-2.785.29-3.797.836-4.816C1.367 2.19 2.19 1.367 3.2.836 4.215.29 5.227 0 8.012 0zm0 0"
                                fill="rgb(56.078431%,73.72549%,36.470588%)"></path>
                            <path
                                d="M20.816 27.363c.117.098.184.242.18.39 0 .12-.04.234-.113.324l-6.563 7.906a.51.51 0 0 1-.715.063.52.52 0 0 1-.18-.391c0-.12.043-.234.117-.328l6.56-7.902c.086-.102.207-.168.34-.18s.27.03.37.117zm2.13 1.793a.51.51 0 0 1 .066.715l-6.562 7.906c-.086.102-.207.168-.344.18a.5.5 0 0 1-.367-.117.52.52 0 0 1-.18-.391c0-.12.04-.234.117-.328l6.56-7.902c.086-.102.21-.168.344-.18s.266.03.37.117zm-10.816 5.31c-.957 1.156-.805 2.89.344 3.86l1.238 1.043a2.72 2.72 0 0 0 3.836-.352l6.953-8.367L19.988 25zm21.13-18.527a4.4 4.4 0 0 1 1.32-1.062l.313-.16c.387-.203.723-.473.996-.8l1.04-1.25c.137-.164.078-.44-.13-.613l-1.69-1.418c-.21-.176-.488-.184-.625-.02l-1.04 1.25a3.31 3.31 0 0 0-.609 1.125l-.102.336a4.32 4.32 0 0 1-.805 1.492L26.5 21.32l1.29 1.18zm3.082 21.637c-.355.328-.824.504-1.305.484a1.81 1.81 0 0 1-1.262-.578c-.684-.738-.64-1.89.094-2.574a1.8 1.8 0 0 1 1.301-.484 1.81 1.81 0 0 1 1.266.578c.68.738.637 1.89-.094 2.574M24.1 20.996c-.906-.848-1.36-2.1-1.156-3.316.29-1.777-.21-3.668-1.527-5.094-1.293-1.398-3.1-2.035-4.852-1.906-.312.023-.46.398-.246.63l2.742 2.965a1.46 1.46 0 0 1-.074 2.051l-2.492 2.324c-.28.262-.656.402-1.04.387a1.44 1.44 0 0 1-1.008-.461l-2.734-2.953c-.098-.105-.25-.148-.387-.102a.37.37 0 0 0-.262.305c-.25 1.773.273 3.648 1.6 5.035a6.01 6.01 0 0 0 4.836 1.852c1.234-.102 2.438.434 3.215 1.398L32.5 38.828c1.38 1.484 3.7 1.566 5.18.19s1.563-3.72.19-5.2zm0 0"
                                fill="rgb(100%,100%,100%)"></path>
                        </svg>