<svg width="48" height="48" viewBox="0 0 50 50" fill="none" xmlns="http://www.w3.org/2000/svg">
                            <path
                                d="M8 0h34c2.783 0 3.826.26 4.783.87a5.118 5.118 0 0 1 2.347 2.347c.522 1.044.87 2 .87 4.783v34c0 2.783-.26 3.826-.87 4.783a5.118 5.118 0 0 1-2.347 2.347c-1.044.522-2 .87-4.783.87H8c-2.783 0-3.826-.26-4.783-.87-.956-.608-1.826-1.304-2.347-2.347C.348 45.739 0 44.783 0 42V8c0-2.783.26-3.826.87-4.783A5.119 5.119 0 0 1 3.217.87C4.174.26 5.217 0 8 0Z"
                                fill="#EE6C4D"></path>
                            <mask id="a" fill="#fff">
                                <path fill-rule="evenodd" clip-rule="evenodd"
                                    d="M31.066 36.563H18.934c-.914 0-1.655-.77-1.655-1.72V15.157c0-.949.741-1.719 1.655-1.719h7.941v4.073a2 2 0 0 0 2 2h3.845v15.334c0 .949-.74 1.718-1.654 1.718ZM18.934 38.28h12.132c1.828 0 3.309-1.539 3.309-3.437V19.549c0-.912-.349-1.786-.97-2.431l-4.169-4.392a3.247 3.247 0 0 0-2.34-1.007h-7.962c-1.828 0-3.309 1.539-3.309 3.437v19.688c0 1.898 1.481 3.437 3.309 3.437Z">
                                </path>
                            </mask>
                            <path fill-rule="evenodd" clip-rule="evenodd"
                                d="M31.066 36.563H18.934c-.914 0-1.655-.77-1.655-1.72V15.157c0-.949.741-1.719 1.655-1.719h7.941v4.073a2 2 0 0 0 2 2h3.845v15.334c0 .949-.74 1.718-1.654 1.718ZM18.934 38.28h12.132c1.828 0 3.309-1.539 3.309-3.437V19.549c0-.912-.349-1.786-.97-2.431l-4.169-4.392a3.247 3.247 0 0 0-2.34-1.007h-7.962c-1.828 0-3.309 1.539-3.309 3.437v19.688c0 1.898 1.481 3.437 3.309 3.437Z"
                                fill="#FBE8E2"></path>
                            <path
                                d="M26.875 13.438h2v-2h-2v2Zm5.845 6.072 2-.044-.043-1.956H32.72v2Zm.686-2.392-1.45 1.377.009.01 1.44-1.387Zm-4.17-4.392 1.45-1.378-.009-.01-1.44 1.388ZM18.934 38.563h12.132v-4H18.934v4Zm-3.655-3.72c0 1.982 1.565 3.72 3.655 3.72v-4c.12 0 .217.053.27.11.053.053.075.118.075.17h-4Zm0-19.687v19.688h4V15.156h-4Zm3.655-3.719c-2.09 0-3.655 1.738-3.655 3.72h4a.254.254 0 0 1-.074.17.382.382 0 0 1-.271.11v-4Zm7.941 0h-7.941v4h7.941v-4Zm-2 2v4.073h4v-4.073h-4Zm0 4.073a4 4 0 0 0 4 4v-4h-4Zm4 4h3.845v-4h-3.845v4Zm5.846-1.961-.001-.083-4 .087v-.004h4Zm0 15.295V19.549h-4v15.295h4Zm-3.655 3.718c2.09 0 3.655-1.737 3.655-3.718h-4c0-.053.022-.117.074-.172a.382.382 0 0 1 .271-.11v4Zm0-2.28H18.934v4h12.132v-4Zm1.309-1.438c0 .866-.657 1.437-1.309 1.437v4c3.003 0 5.309-2.507 5.309-5.437h-4Zm0-15.295v15.295h4V19.549h-4Zm-.41-1.044c.254.264.41.638.41 1.044h4a5.506 5.506 0 0 0-1.528-3.818l-2.882 2.774Zm-4.18-4.402 4.17 4.392 2.901-2.754-4.17-4.392-2.9 2.753Zm-.889-.384c.322 0 .647.132.9.394l2.881-2.774a5.247 5.247 0 0 0-3.78-1.62v4Zm-7.962 0h7.962v-4h-7.962v4Zm-1.309 1.437c0-.866.657-1.437 1.309-1.437v-4c-3.003 0-5.309 2.507-5.309 5.437h4Zm0 19.688V15.156h-4v19.688h4Zm1.309 1.437c-.652 0-1.309-.57-1.309-1.437h-4c0 2.93 2.306 5.437 5.309 5.437v-4Z"
                                fill="#FBE8E2" mask="url(#a)"></path>
                            <path fill-rule="evenodd" clip-rule="evenodd"
                                d="M42.188 10.93v3.684c0 .561-.45 1.011-1.011 1.011-.561 0-1.011-.45-1.011-1.01v-3.686c0-.58-.515-1.095-1.095-1.095h-3.685c-.561 0-1.011-.45-1.011-1.01 0-.562.45-1.011 1.01-1.011h3.686c1.701 0 3.117 1.415 3.117 3.116ZM7.813 39.07v-3.684c0-.561.45-1.011 1.01-1.011.561 0 1.011.45 1.011 1.01v3.686c0 .58.515 1.095 1.095 1.095h3.685c.561 0 1.011.45 1.011 1.01 0 .561-.45 1.011-1.01 1.011h-3.686c-1.701 0-3.117-1.415-3.117-3.116ZM10.93 7.813h3.684c.561 0 1.011.45 1.011 1.01 0 .561-.45 1.011-1.01 1.011h-3.686c-.58 0-1.095.515-1.095 1.095v3.685c0 .561-.45 1.011-1.01 1.011-.562 0-1.011-.45-1.011-1.01v-3.686c0-1.701 1.415-3.117 3.116-3.117ZM39.07 42.188h-3.684c-.561 0-1.011-.45-1.011-1.011 0-.561.45-1.011 1.01-1.011h3.686c.58 0 1.095-.515 1.095-1.095v-3.685c0-.561.45-1.011 1.01-1.011.561 0 1.011.45 1.011 1.01v3.686c0 1.701-1.415 3.117-3.116 3.117Z"
                                fill="#fff"></path>
                            <path fill-rule="evenodd" clip-rule="evenodd" d="M19.219 28.594c0-.431.35-.781.781-.781h10.435a.781.781 0 1 1 0 1.563H20a.781.781 0 0
                                1-.781-.782ZM19.219 32.072c0-.431.35-.781.781-.781h10.435a.781.781 0 0 1 0
                                1.562H20a.781.781 0 0
                                1-.781-.78Z" fill="#FBE8E2"></path>
                            <path fill-rule="evenodd" clip-rule="evenodd"
                                d="M9.375 24.61c0-.648.525-1.172 1.172-1.172h28.906a1.172 1.172 0 0 1 0 2.343H10.547a1.172 1.172 0 0 1-1.172-1.172Z"
                                fill="#fff"></path>
                            <path fill-rule="evenodd" clip-rule="evenodd"
                                d="M8.28 24.609a2.266 2.266 0 0 1 2.266-2.266h28.907a2.266 2.266 0 1 1 0 4.532H10.546a2.266 2.266 0 0 1-2.265-2.266Zm2.266-1.172a1.172 1.172 0 0 0 0 2.344h28.907a1.172 1.172 0 0 0 0-2.344H10.546Z"
                                fill="#EE6C4D"></path>
                        </svg>