<svg xmlns="http://www.w3.org/2000/svg" height="50" width="50" viewBox="0 0 100 100">
                            <g fill="none">
                                <path
                                    d="M16 0L84 0C89.5 0 91.6 0.6 93.6 1.7 95.6 2.8 97.2 4.4 98.3 6.4 99.4 8.4 100 10.5 100 16L100 84C100 89.5 99.4 91.6 98.3 93.6 97.2 95.6 95.6 97.2 93.6 98.3 91.6 99.4 89.5 100 84 100L16 100C10.5 100 8.4 99.4 6.4 98.3 4.4 97.2 2.8 95.6 1.7 93.6 0.6 91.6 0 89.5 0 84L0 16C0 10.5 0.6 8.4 1.7 6.4 2.8 4.4 4.4 2.8 6.4 1.7 8.4 0.6 10.5 0 16 0Z"
                                    fill="#AB6993"></path>
                                <path
                                    d="M16 0L84 0C89.5 0 91.6 0.6 93.6 1.7 95.6 2.8 97.2 4.4 98.3 6.4 99.4 8.4 100 10.5 100 16L100 84C100 89.5 99.4 91.6 98.3 93.6 97.2 95.6 95.6 97.2 93.6 98.3 91.6 99.4 89.5 100 84 100L16 100C10.5 100 8.4 99.4 6.4 98.3 4.4 97.2 2.8 95.6 1.7 93.6 0.6 91.6 0 89.5 0 84L0 16C0 10.5 0.6 8.4 1.7 6.4 2.8 4.4 4.4 2.8 6.4 1.7 8.4 0.6 10.5 0 16 0Z"
                                    fill="#4A7AAB"></path>
                                <g transform="translate(-371 -2828)translate(371 2828)translate(50.5 50.5)rotate(30)"
                                    fill="#FFF">
                                    <path
                                        d="M-16.2 3.8L-2.3 29.5C-2.1 29.7-1.9 29.8-1.7 29.7 -1.5 29.6-1.4 29.5-1.4 29.3L-1.4 10.6C-3.8 10-5.5 7.9-5.5 5.4 -5.5 2.5-3.1 0.1-0.2 0.1 2.8 0.1 5.2 2.5 5.2 5.4 5.2 7.9 3.4 10 1 10.6L1 29.3C1 29.5 1.2 29.7 1.5 29.7 1.6 29.7 1.8 29.6 1.9 29.5L15.8 3.8C16.2 3 16.2 2.2 15.9 1.4L8.4-15.1C8-16.1 7.1-16.7 6-16.7L-6.4-16.7C-7.5-16.7-8.4-16.1-8.9-15.1L-16.3 1.4C-16.6 2.2-16.6 3-16.2 3.8Z">
                                    </path>
                                    <path
                                        d="M9-18.7L-9.4-18.7C-10.3-18.7-11.1-19.7-11.1-20.9L-11.1-28.3C-11.1-29.5-10.3-30.5-9.4-30.5L9-30.5C10-30.5 10.8-29.5 10.8-28.3L10.8-20.9C10.8-19.7 10-18.7 9-18.7Z">
                                    </path>
                                </g>
                            </g>
                        </svg>