<svg xmlns="http://www.w3.org/2000/svg" width="48" height="48" viewBox="0 0 100 100"
                            fill-rule="evenodd">
                            <path
                                d="M16.024 0h67.95c5.572 0 7.593.58 9.63 1.67s3.636 2.688 4.725 4.725 1.67 4.058 1.67 9.63v67.95c0 5.572-.58 7.593-1.67 9.63s-2.688 3.636-4.725 4.725-4.058 1.67-9.63 1.67h-67.95c-5.572 0-7.593-.58-9.63-1.67S2.76 95.642 1.67 93.605 0 89.548 0 83.976v-67.95c0-5.572.58-7.593 1.67-9.63S4.358 2.76 6.395 1.67 10.452 0 16.024 0z"
                                fill="#4a7aab"></path>
                            <path
                                d="M70.607 44.156h-30.35l.033-10.502c.18-2.232 1.377-4.486 3.2-6.03 1.898-1.603 4.092-2.37 6.652-2.344a12.07 12.07 0 0 1 .91.043c4.586.37 8.4 4.088 8.68 8.466.03.43.014.8-.005 1.636l-.05 2.586a2.64 2.64 0 0 0 2.602 2.678c1.482-.012 2.657-1.145 2.678-2.602l.048-2.54c.023-.992.034-1.492-.004-2.1-.447-6.933-6.39-12.815-13.527-13.4-.43-.034-.858-.054-1.28-.06h-.183c-3.77 0-7.11 1.208-9.933 3.593-2.873 2.432-4.763 6.035-5.053 9.633-.02.225-.074.925-.05 10.93h-5.582c-.77 0-1.393.625-1.393 1.393v29.525c0 .77.625 1.393 1.393 1.393h41.214c.77 0 1.393-.625 1.393-1.393V45.55c0-.77-.623-1.393-1.393-1.393zM53.415 68.06h-6.83l1.043-8.468c-1.006-.707-1.66-1.85-1.66-3.14 0-2.145 1.805-3.884 4.033-3.884s4.033 1.74 4.033 3.884c0 1.3-.653 2.434-1.66 3.14l1.042 8.468z"
                                fill="#fff" fill-rule="nonzero"></path>
                        </svg>